<svg width="109" height="32" viewBox="0 0 109 32" fill="none" xmlns="http://www.w3.org/2000/svg">
<path d="M24.3835 8.74027e-05L27.8133 0.000116171C30.4271 0.000123571 32.0999 2.61721 31.9954 4.40159C31.8908 6.18597 30.7407 17.8439 30.7407 17.8439H12.7578L11.6077 32H3.24356C-0.206666 32 0.00244406 28.3123 0.00244406 28.3123C0.00244406 28.3123 1.58296 6.42387 1.88438 3.21199C2.18575 0.000628233 3.87098 0.000337252 5.23004 0.000102518C6.30526 -8.32577e-05 18.1762 2.88053e-05 24.3835 8.74027e-05Z" fill="#EDF1FF"/>
<path d="M11.9214 10.9443L12.2131 9.75472H20.2855L20.0036 10.9443H11.9214Z" fill="#1A2550"/>
<path d="M12.3396 9.04097L12.6313 7.85139H20.7037L20.4218 9.04097H12.3396Z" fill="#1A2550"/>
<path d="M13.3851 9.99264L13.6768 8.80305H21.7493L21.4673 9.99264H13.3851Z" fill="#1A2550"/>
<path d="M46.2159 22L47.0852 10.3636H50.8466C51.6686 10.3636 52.3447 10.5208 52.875 10.8352C53.4091 11.1496 53.7973 11.5777 54.0398 12.1193C54.2822 12.661 54.3769 13.2727 54.3239 13.9545C54.2746 14.6288 54.089 15.2386 53.767 15.7841C53.4451 16.3258 52.9943 16.7557 52.4148 17.0739C51.839 17.392 51.142 17.5511 50.3239 17.5511H47.3693L47.4375 16.5966H50.3636C50.9735 16.5966 51.4867 16.483 51.9034 16.2557C52.3239 16.0246 52.6477 15.7102 52.875 15.3125C53.1061 14.9148 53.2405 14.4621 53.2784 13.9545C53.3163 13.4432 53.25 12.9905 53.0795 12.5966C52.9091 12.1989 52.6307 11.8864 52.2443 11.6591C51.858 11.4318 51.358 11.3182 50.7443 11.3182H48.0739L47.2784 22H46.2159ZM59.1147 22.1818C58.3003 22.1818 57.609 21.9924 57.0408 21.6136C56.4764 21.2311 56.0578 20.7027 55.7851 20.0284C55.5124 19.3504 55.4082 18.5701 55.4726 17.6875C55.537 16.8087 55.7567 16.0284 56.1317 15.3466C56.5067 14.661 56.9953 14.125 57.5976 13.7386C58.2037 13.3485 58.8836 13.1534 59.6374 13.1534C60.1071 13.1534 60.5559 13.2405 60.984 13.4148C61.412 13.5852 61.787 13.8485 62.109 14.2045C62.4347 14.5568 62.6791 15.0019 62.8419 15.5398C63.0048 16.0739 63.0597 16.7064 63.0067 17.4375L62.9669 17.9375H56.1488L56.2113 17.0455H62.001C62.0465 16.4848 61.9726 15.9811 61.7794 15.5341C61.59 15.0833 61.3059 14.7273 60.9272 14.4659C60.5484 14.2045 60.0976 14.0739 59.5749 14.0739C59.0294 14.0739 58.5332 14.2235 58.0863 14.5227C57.6431 14.8182 57.2813 15.2064 57.001 15.6875C56.7245 16.1686 56.5635 16.6913 56.5181 17.2557L56.4669 17.8466C56.4139 18.5625 56.4878 19.1742 56.6885 19.6818C56.8893 20.1894 57.1999 20.5795 57.6203 20.8523C58.0446 21.1212 58.5635 21.2557 59.1772 21.2557C59.5938 21.2557 59.9631 21.1913 60.2851 21.0625C60.6071 20.9337 60.8817 20.7614 61.109 20.5455C61.34 20.3258 61.5219 20.0852 61.6544 19.8239L62.5863 20.1364C62.4272 20.5038 62.1847 20.8428 61.859 21.1534C61.537 21.464 61.145 21.714 60.6828 21.9034C60.2207 22.089 59.698 22.1818 59.1147 22.1818ZM64.5688 22L65.2222 13.2727H68.6654C69.5859 13.2727 70.2999 13.4754 70.8074 13.8807C71.3188 14.286 71.548 14.8295 71.4949 15.5114C71.4533 16.0303 71.2715 16.4432 70.9495 16.75C70.6313 17.0568 70.2165 17.2746 69.7052 17.4034C70.0347 17.4602 70.3377 17.5833 70.6143 17.7727C70.8908 17.9621 71.1067 18.214 71.262 18.5284C71.4211 18.839 71.4836 19.2083 71.4495 19.6364C71.4154 20.0947 71.2715 20.5019 71.0177 20.858C70.7677 21.2102 70.4287 21.4886 70.0006 21.6932C69.5726 21.8977 69.0745 22 68.5063 22H64.5688ZM65.6086 21.0625H68.5802C69.1105 21.0625 69.5423 20.9261 69.8756 20.6534C70.2127 20.3769 70.3965 20.0095 70.4268 19.5511C70.4646 19.0625 70.3472 18.6723 70.0745 18.3807C69.8018 18.0852 69.4192 17.9375 68.9268 17.9375H65.8472L65.6086 21.0625ZM65.9097 17.0398H68.4381C68.8283 17.0398 69.173 16.9792 69.4722 16.858C69.7715 16.7367 70.0082 16.5644 70.1824 16.3409C70.3605 16.1136 70.459 15.8523 70.4779 15.5568C70.5082 15.1326 70.3586 14.803 70.029 14.5682C69.6995 14.3295 69.2203 14.2102 68.5915 14.2102H66.1199L65.9097 17.0398ZM76.6934 22.1818C75.879 22.1818 75.1877 21.9924 74.6195 21.6136C74.0552 21.2311 73.6366 20.7027 73.3639 20.0284C73.0911 19.3504 72.987 18.5701 73.0514 17.6875C73.1158 16.8087 73.3355 16.0284 73.7105 15.3466C74.0855 14.661 74.5741 14.125 75.1764 13.7386C75.7824 13.3485 76.4623 13.1534 77.2161 13.1534C77.6858 13.1534 78.1347 13.2405 78.5627 13.4148C78.9908 13.5852 79.3658 13.8485 79.6877 14.2045C80.0135 14.5568 80.2578 15.0019 80.4207 15.5398C80.5836 16.0739 80.6385 16.7064 80.5855 17.4375L80.5457 17.9375H73.7275L73.79 17.0455H79.5798C79.6252 16.4848 79.5514 15.9811 79.3582 15.5341C79.1688 15.0833 78.8847 14.7273 78.5059 14.4659C78.1271 14.2045 77.6764 14.0739 77.1536 14.0739C76.6082 14.0739 76.112 14.2235 75.665 14.5227C75.2218 14.8182 74.8601 15.2064 74.5798 15.6875C74.3033 16.1686 74.1423 16.6913 74.0968 17.2557L74.0457 17.8466C73.9927 18.5625 74.0665 19.1742 74.2673 19.6818C74.468 20.1894 74.7786 20.5795 75.1991 20.8523C75.6233 21.1212 76.1423 21.2557 76.7559 21.2557C77.1726 21.2557 77.5419 21.1913 77.8639 21.0625C78.1858 20.9337 78.4605 20.7614 78.6877 20.5455C78.9188 20.3258 79.1006 20.0852 79.2332 19.8239L80.165 20.1364C80.0059 20.5038 79.7635 20.8428 79.4377 21.1534C79.1158 21.464 78.7237 21.714 78.2616 21.9034C77.7995 22.089 77.2767 22.1818 76.6934 22.1818ZM81.2896 22L81.3635 21.0455H81.6362C81.9468 21.0455 82.2025 20.9886 82.4032 20.875C82.604 20.7576 82.7669 20.5606 82.8919 20.2841C83.0207 20.0076 83.1286 19.6307 83.2157 19.1534C83.3029 18.6761 83.39 18.0777 83.4771 17.358L83.9714 13.2727H89.5169L88.8578 22H87.8464L88.426 14.2273H84.8578L84.4316 17.6989C84.3483 18.4072 84.246 19.0303 84.1248 19.5682C84.0074 20.1061 83.8483 20.5549 83.6476 20.9148C83.4506 21.2746 83.1911 21.5455 82.8691 21.7273C82.551 21.9091 82.1457 22 81.6532 22H81.2896ZM92.3489 20.5625L97.4852 13.2727H98.7068L98.0534 22H97.0364L97.5761 14.7102L92.4511 22H91.2182L91.8716 13.2727H92.8886L92.3489 20.5625ZM103.807 22.1818C103.05 22.1818 102.394 21.9905 101.841 21.608C101.288 21.2216 100.874 20.6875 100.597 20.0057C100.321 19.3201 100.216 18.5322 100.285 17.642C100.349 16.7557 100.567 15.9754 100.938 15.3011C101.309 14.6269 101.794 14.1004 102.393 13.7216C102.995 13.3428 103.671 13.1534 104.421 13.1534C105.178 13.1534 105.834 13.3466 106.387 13.733C106.94 14.1155 107.355 14.6496 107.631 15.3352C107.908 16.0208 108.014 16.8125 107.949 17.7102C107.885 18.589 107.665 19.3655 107.29 20.0398C106.919 20.7102 106.432 21.2348 105.83 21.6136C105.232 21.9924 104.557 22.1818 103.807 22.1818ZM103.819 21.2557C104.428 21.2557 104.959 21.0928 105.41 20.767C105.86 20.4375 106.216 19.9981 106.478 19.4489C106.743 18.8996 106.9 18.2973 106.949 17.642C106.995 16.9943 106.928 16.4015 106.75 15.8636C106.576 15.322 106.292 14.8883 105.898 14.5625C105.508 14.2367 105.014 14.0739 104.415 14.0739C103.805 14.0739 103.275 14.2405 102.824 14.5739C102.374 14.9072 102.016 15.3485 101.75 15.8977C101.485 16.447 101.33 17.0511 101.285 17.7102C101.235 18.3542 101.298 18.9451 101.472 19.483C101.65 20.0208 101.936 20.4508 102.33 20.7727C102.724 21.0947 103.22 21.2557 103.819 21.2557Z" fill="white"/>
</svg>
